<svg width="51" height="42" viewBox="0 0 51 42" fill="none" xmlns="http://www.w3.org/2000/svg">
<path d="M36.1705 40.567V36.1707C36.1705 33.8387 35.2442 31.6023 33.5952 29.9534C31.9463 28.3044 29.7099 27.3781 27.3779 27.3781H9.79264C7.46068 27.3781 5.22424 28.3044 3.5753 29.9534C1.92636 31.6023 1 33.8387 1 36.1707V40.567" stroke="#331DF4" stroke-width="2" stroke-linecap="round" stroke-linejoin="round"/>
<path d="M18.5853 18.5853C23.4413 18.5853 27.3779 14.6487 27.3779 9.79263C27.3779 4.9366 23.4413 1 18.5853 1C13.7293 1 9.79266 4.9366 9.79266 9.79263C9.79266 14.6487 13.7293 18.5853 18.5853 18.5853Z" stroke="#331DF4" stroke-width="2" stroke-linecap="round" stroke-linejoin="round"/>
<path d="M49.3595 40.5669V36.1706C49.358 34.2224 48.7096 32.3299 47.516 30.7902C46.3225 29.2505 44.6513 28.1507 42.765 27.6637" stroke="#331DF4" stroke-width="2" stroke-linecap="round" stroke-linejoin="round"/>
<path d="M33.9724 1.28589C35.8637 1.77015 37.5401 2.8701 38.7372 4.41235C39.9343 5.9546 40.5841 7.85141 40.5841 9.80375C40.5841 11.7561 39.9343 13.6529 38.7372 15.1951C37.5401 16.7374 35.8637 17.8374 33.9724 18.3216" stroke="#331DF4" stroke-width="2" stroke-linecap="round" stroke-linejoin="round"/>
</svg>
